<?xml version="1.0" encoding="utf-8"?>
<!-- Generator: Adobe Illustrator 16.0.0, SVG Export Plug-In . SVG Version: 6.00 Build 0)  -->
<!DOCTYPE svg PUBLIC "-//W3C//DTD SVG 1.1//EN" "http://www.w3.org/Graphics/SVG/1.1/DTD/svg11.dtd">
<svg version="1.1" id="Layer_1" xmlns="http://www.w3.org/2000/svg" xmlns:xlink="http://www.w3.org/1999/xlink" x="0px" y="0px"
	 width="562px" height="701px" viewBox="0 0 562 701" enable-background="new 0 0 562 701" xml:space="preserve">
<g>
	<path fill="#77CAE9" d="M477.87,640.512c-7.188-3.75-15.043-6.063-22.3-9.676c-12.677-6.309-23.08-16.291-33.27-26.104
		c-3.881-3.752-8.113-8.713-6.521-13.873c3.788-12.309-9.884-29.41-5.719-41.582c1.347-3.949,4.019-7.287,5.68-11.115
		c2.182-5.006,2.533-10.578,3.621-15.922c2.358-11.529,8.168-21.971,15.18-31.523c-8.574,1.547-16.933,3.965-25.23,6.582
		c-7.433,2.328-14.836,4.793-22.353,6.875c-3.829,1.072-7.756,2.234-11.689,2.832c-2.488,0.367-5.038,0.414-7.549,0.553
		c-4.83,0.275-11.62,0.166-15.456,3.613c-4.516,4.055-1.967,11.756-1.913,16.979c0.008,0.719-0.2,1.301-0.536,1.746
		c4.019,16.504,17.347,33.008,29.097,44.184c3.92,3.736,8.015,7.35,11.085,11.805c5.328,7.73,7.111,17.82,4.746,26.93
		c-7.884,1.793-16.229,1.822-23.73,4.869c-7.502,3.033-14.216,10.504-12.662,18.436c9.845-0.078,20.532-1.533,30.384-1.609
		c4.416-0.029,9.179,0.031,12.753,2.635c2.312,1.684,3.836,4.271,4.808,6.965c2.603,7.211,1.424,15.678-3.063,21.895
		c6.431,1.744,17.378-0.016,21.58-5.205c4.195-5.176,5.007-12.861,1.982-18.803c5.458,6.906,15.073,11.422,23.425,14.193
		c16.803,5.572,34.908,8.697,49.605,18.402c-3.261-3.611-3.92-12.875-5.374-17.102C491.81,649.82,485.058,644.246,477.87,640.512z"
		/>
	<path fill="#B1DDEF" d="M546.329,282.546c-0.856-8.317-0.956-16.501-3.805-24.359c-11.215-30.888-26.303-60.369-44.805-87.533
		c-9.187-13.488-19.591-27.409-20.646-43.7c-0.337-5.262,0.766-11.298,5.221-14.126c2.052-1.306,4.547-1.723,6.974-1.869
		c11.191-0.662,23.425,6.354,30.582,14.981c6.193-0.999,9.546-8.206,9.263-14.476c-0.489-11.126-9.606-20.746-20.669-22.024
		c0.728-4.934,7.641-7.341,7.885-12.324c0.085-1.746-0.727-3.415-1.729-4.843c-3.637-5.178-11.591-6.816-17.868-6.008
		c1.532-9.723-1.814-19.471-5.105-28.745c-1.96-5.512-4.026-11.204-8.076-15.425c-4.669-4.861-11.346-7.131-17.745-9.232
		c-8.535-2.802-17.798-4.803-26.716-3.766c-42.57,4.953-73.872,46.818-78.642,89.404c-2.12,18.936-0.099,38.253-3.49,57.004
		c-4.502,24.856-18.403,47.313-36.025,65.417c-17.622,18.101-38.888,32.224-60.583,45.162
		c-17.193,10.25-36.025,21.266-43.229,39.941c-2.641,6.854-10.64,9.018-17.829,10.552c-41.116,8.777-75.257,44.062-82.684,85.446
		c-13.855,6.277-29.747,11.605-43.596,17.867c-13.427,6.094-27.068,12.311-38.153,22.016c-11.084,9.707-19.444,23.609-18.992,38.338
		c33.621,18.035,65.482,34.586,102.9,42.072c37.411,7.486,77.348,6.201,112.339-9.018c-4.057,11.988,2.848,27.053,12.402,35.336
		c5.404,4.686,12.202,7.426,19.015,9.6c-4.256,12.584,1.623,29.242,10.228,39.363c9.614,11.314,8.03,31.951,0.26,44.598
		c-2.625,4.271-6.675,8.131-6.851,13.137c4.953,2.098,10.127,4.609,14.568,7.639c-0.353,7.885-0.436,15.816,2.281,23.242
		c3.46-4.531,11.468-10.426,17.018-11.727c24.32-5.635,51.458,8.955,75.962,13.717c-11.767-7.99-25.545-17.162-38.527-22.98
		c9.988,4.303,25.031,0.949,33.59-5.756c-17.484-2.467-35.827-8.406-51.442-16.643c-15.608-8.238-28.768-23.395-29.626-41.016
		c-0.075-1.533-0.053-3.064,0.33-4.533c0.566-2.174,1.883-4.057,3-6.002c5.321-9.262,6.239-20.943,2.411-30.926
		c18.342-3.125,38.881-16.857,48.787-33.684c-0.322-6.904-2.021-14.268,3.651-19.598c4.333-4.072,10.977-4.699,16.626-5.127
		c2.94-0.215,5.91-0.215,8.843-0.553c3.958-0.443,7.953-1.744,11.789-2.801c15.968-4.426,31.478-10.611,47.844-13.52
		c1.952-0.352,3.3,1.088,3.575,2.604c1.34-1.73,2.71-3.445,4.104-5.113c23.47-28.264,54.42-42.916,76.045-72.617
		c3.844-5.268,5.183-12.033,9.118-17.224c5.695-7.519,2.916-18.572,6.79-27.177c1.355-3,3.483-5.603,4.991-8.543
		c1.922-3.75,2.778-7.938,3.583-12.071C545.449,324.375,548.465,303.368,546.329,282.546z"/>
	<path fill="#1F344D" d="M481.658,466.77c36.37-31.262,61.616-75.585,71.078-124.812c3.913-20.382,4.869-40.178,2.848-58.838
		c-5.947-54.814-37.279-102.326-64.953-144.287l-0.261-0.375c-1.86-2.492-4.042-6.496-3.865-11.426
		c0.061-1.715,0.206-5.727,1.905-7.039c1.585-1.221,4.455-0.754,5.299-0.578c8.021,1.657,15.425,6.786,19.803,13.71l5.665,8.968
		l7.831-7.449c4.226-4.019,8.214-7.812,10.281-13.576c3.185-8.837,0.283-19.344-7.372-26.759c-2.305-2.235-4.968-4.194-8.114-5.956
		c1.462-2.675,2.243-5.488,2.327-8.39c0.291-10.545-8.819-18.314-17.79-19.739c-0.482-0.072-0.974-0.137-1.485-0.18
		c0.152-9.882-2.702-19.892-8.299-29.074C487.729,16.485,473.001,5.817,457.17,2.44c-27.521-5.867-58.194,6.496-78.121,31.498
		c-15.501,19.456-24.749,45.796-27.474,78.301c-0.475,5.695-0.766,11.463-1.041,17.041c-0.842,16.979-1.639,33.017-7.388,47.599
		c-11.008,27.96-37.532,45.215-65.627,63.488c-26.885,17.488-54.673,35.569-69.731,64.425c-13.198,0.348-27.283,5.002-39.807,13.175
		c-11.069,7.23-21.197,16.895-32.833,31.343c-8.666,10.748-20.807,27.222-26.961,46.758c-44.186,7.639-84.903,39.178-103.972,80.67
		L1,483.734l6.553,4.041c52.078,32.137,108.474,47.814,162.427,44.938c18.242-0.98,36.254-4.227,53.586-9.646
		c0.191,9.08,2.495,17.531,6.729,24.619c5.779,9.676,15.456,16.781,26.104,19.215c0.191,9.629,1.508,21.496,8.566,31.141
		c1.784,2.434,3.843,4.334,6.017,5.926c-0.008,0.107-0.031,0.244-0.016,0.32c1.554,7.441,3.124,17.225,1.485,26.686
		c-1.561,9.035-15.088,25.264-13.603,27.482c0.092,0.139,0.207,0.244,0.314,0.367c0.582,0.873,19.023,7.242,19.023,7.242
		c-1.631,7.641-1.263,27.344,0.49,28.018c1.752,0.674,17.614-13.074,24.535-18.463c12.577,3.443,53.211,14.453,80.417,19.719
		c2.765,0.535,7.441,1.408,8.022,0.078c1.401-3.172-21.503-16.322-41.521-27.162c1.93-0.016,4.44-0.139,7.334-0.551
		c11.23-1.594,25.2-7.166,24.872-11.176c-0.36-4.365-17.225-2.834-44.484-11.668c-19.605-6.354-31.67-11.895-37.372-22.139
		c-3.178-5.695-4.479-12.355-5.397-19.076c4.847-3.949,8.168-9.844,9.829-15.264c2.167-7.074,3.062-15.004,2.611-23.027
		c12.003-3.107,23.103-9.723,31.378-18.725c3.95-4.287,7.249-9.186,9.891-14.438c3.161,10.855,8.16,21.189,14.904,30.283
		c3.507,4.732,7.434,9.094,11.237,13.32c4.058,4.518,7.885,8.773,11.261,13.459c3.805,5.25,5.756,9.582,6.133,13.596
		c0.351,3.766-1.095,8.512-4.549,10.334c-2.319,1.209-5.35,1.193-8.871,1.193c-3.521,0.016-7.51,0-11.376,1.379
		c-8.527,3.076-13.695,12.6-11.773,21.693l1.011,4.73l4.73-1.01c7.915-1.684,16.008-2.496,24.129-2.449
		c4.278,0.031,9.102,0.383,12.371,2.709c2.786,1.975,4.646,5.65,4.968,9.799c0.292,3.797-0.627,7.963-1.691,12.785l-1.738,8.037
		l5.757,0.199c7.831,0.307,15.701-3.291,20.623-9.354c3.605-4.441,5.396-9.754,5.244-15.143
		c41.276,17.912,70.098,30.559,73.274,32.32c0.391,0.229,1.998,1.178,2.955,0.551c0.896-0.566,0.819-2.281,0.643-3.537
		c-8.649-21.527-18.387-30.039-25.262-33.867c-2.129-1.178-8.528-4.838-17.063-8.803c-5.213-2.42-10.143-4.699-14.82-7.502
		c-18.073-10.824-31.355-29.609-35.52-50.264c-6.323-31.309,8.1-61.592,20.394-80.531
		C452.24,488.496,467.803,478.682,481.658,466.77z M292.033,627.438c9.011,17.314,29.258,22.889,43.795,26.885
		c14.131,3.873,26.465,4.211,34.931,3.811c-6.032,1.578-11.123,2.252-14.79,2.572c-11.903,1.027-22.728-0.488-23.791-0.643
		c-5.91-0.871-8.299-1.76-8.682-0.963c-0.919,1.896,11.674,10.043,20.897,15.096c9.846,5.404,18.435,8.695,24.115,10.609
		c-19.773-2.955-31.563-6.783-38.903-9.969c0,0-12.02-5.205-25.071-5.465c-1.469-0.016-2.854,0.031-4.501,0.338
		c-8.513,1.516-14.032,7.854-16.72,11.559c0.191-1.439,1.103-8.42,1.608-14.775c0.068-0.855,0.169-2.357-0.643-3.857
		c-1.058-1.975-3.063-2.848-4.18-3.215c-4.073-1.5-8.145-3-12.217-4.5c3.583-4.09,8.642-11.07,11.253-20.9
		c0,0,2.557-9.965-0.996-26.502c1.316,0.338,2.649,0.613,4.012,0.674c0.251,0,0.496,0.016,0.742,0.016
		c1.63,0,3.161-0.244,4.624-0.627C287.716,614.285,288.612,620.854,292.033,627.438z M337.398,512.396
		c-1.226,6.154-4.195,14.697-11.308,22.459c-10.494,11.453-23.876,14.178-29.135,14.805l-9.21,1.057l1.639,9.141
		c1.446,8.053,1.049,16.365-1.11,23.426c-1.323,4.301-3.95,7.516-5.458,7.516l0,0c-0.658-0.031-2.212-0.855-3.812-3.047
		c-5.076-6.936-5.351-17.025-5.198-28.553l0.13-9.156l-9.155,0.354c-7.257,0.275-15.311-4.547-19.551-11.637
		c-3.552-5.941-4.945-13.764-3.966-22.107c30.208-12.479,56.105-31.463,75.028-54.996c21.366,4.242,43.521,0.307,60.951-10.854
		c20.316-13.014,33.337-35.506,33.98-58.685l-3.827-0.444c-1.156,5.528-8.375,33.897-36.66,48.381
		c-24.833,12.707-48.748,5.91-55.623,3.475l-5.703-1.547l-3.536,4.732c-29.947,39.99-81.091,65.635-136.82,68.621
		c-47.975,2.57-98.269-10.672-145.555-38.275c18.908-34.984,54.068-59.619,92.259-64.535c3.927,1.043,7.571,2.758,10.833,5.1
		c6.254,4.486,9.63,10.197,11.353,14.191l5.703,13.215l-2.014-14.24c-0.727-5.189-2.894-12.768-9.063-19.475
		c-2.472-2.693-5.344-4.959-8.559-6.781c2.412-6.508,5.259-12.907,8.467-19.062c4.677-8.971,10.441-17.943,16.229-25.262l0.23-0.291
		c7.502-9.492,15.256-19.306,28.507-27.348c9.041-5.489,19-9.3,29.618-11.337c0.728,4.673,2.787,11.842,8.59,18.311
		c8.291,9.244,18.931,11.172,23.119,11.563l18.471,1.753l-17.714-5.527c-1.286-0.398-12.685-4.256-16.75-16.133
		c-4.624-13.507,4.41-24.45,4.792-24.91l0.138-0.184c4.409-6.713,9.4-13.071,14.859-18.9c14.231-15.214,27.987-22.954,39.041-29.177
		c1.845-1.038,3.621-2.037,5.319-3.027c24.589-14.3,58.846-37.296,72.419-71.749c6.782-17.235,7.693-35.47,8.572-53.111
		c0.269-5.427,0.544-11.042,1.004-16.451c2.427-29.013,10.41-52.196,23.738-68.908c15.601-19.582,40.066-29.763,60.882-25.327
		c11.244,2.399,21.771,10.089,28.155,20.569c4.616,7.578,6.521,15.938,5.412,23.658c-0.597,0.275-1.194,0.555-1.807,0.846
		c-8.184,3.935-22.667,27.953-24.274,35.194l-1.256,5.626l17.967-15.275c4.646-3.905,9.76-7.242,15.211-9.913
		c2.939-1.439,7.241-3.288,10.663-2.749c1.753,0.276,3.063,1.616,3.116,2.063c-0.008,0.425-0.872,2.101-4.686,4.716l-13.962,9.576
		l15.923,5.776c5.105,1.853,10.379,3.939,13.81,7.261c2.541,2.465,3.843,5.841,3.177,8.149
		c-6.561-6.316-14.897-10.748-23.755-12.582c-4.271-0.88-12.484-1.554-19.481,3.862c-8.13,6.296-8.497,16.371-8.643,20.171
		c-0.276,7.721,2.272,15.636,7.127,22.208c26.51,40.193,56.556,85.756,62.044,136.38c1.838,16.937,0.95,34.996-2.641,53.677v0.004
		c-8.719,45.386-31.922,86.189-65.321,114.896c-34.662,29.793-79.605,45.471-123.323,42.975l-27.612-1.744L337.398,512.396z
		 M405.889,578.566c4.7,23.271,19.658,44.445,40.028,56.648c5.114,3.063,10.503,5.557,15.724,7.977
		c13.066,6.063,14.055,7.088,15.999,8.236c5.765,3.4,13.42,9.125,21.067,19.23c-12.631-6.002-25.385-12.004-38.26-17.99
		c-11.606-5.404-23.165-10.732-34.664-15.969l-8.703-1.563l3.384,8.176c0.498,1.211,1.109,3.154,1.003,5.559
		c-0.03,0.674-0.214,3.689-3.055,7.932c-3.499,5.219-8.252,8.16-11.329,9.689c1.117-1.316,5.955-7.271,5.519-15.998
		c-0.03-0.658-0.696-10.686-9.002-16.949c-5.551-4.18-11.398-4.332-17.905-4.484c-5.052-0.139-13.864,0.365-24.26,4.959
		c1.691-3.307,4.578-7.531,9.37-9.17c2.304-0.781,3.59-0.459,8.077-0.795c6.199-0.477,10.304-0.689,13.388-2.313
		c6.576-3.461,10.465-11.422,9.676-19.797c-0.711-7.625-4.86-14.133-7.915-18.357c-3.683-5.098-7.861-9.752-11.911-14.254
		c-3.82-4.24-7.426-8.252-10.664-12.615c-9.171-12.355-14.851-27.238-16.405-42.531c0.314,0,0.628,0.014,0.941,0.014
		c21.863,0,43.957-4.18,64.939-11.91C406.555,528.547,401.135,555.035,405.889,578.566z"/>
	<path fill="#1F344D" d="M434.412,44.425c-10.298,0-18.649,8.349-18.649,18.645c0,10.3,8.352,18.644,18.649,18.644
		c10.296,0,18.64-8.344,18.64-18.644C453.052,52.774,444.708,44.425,434.412,44.425z"/>
	<path fill="#B1DDEF" d="M446.369,55.059c0,5.872-4.763,10.633-10.634,10.633c-5.878,0-10.641-4.761-10.641-10.633
		c0-5.875,4.763-10.633,10.641-10.633C441.606,44.425,446.369,49.183,446.369,55.059z"/>
</g>
</svg>
